<!--?xml version="1.0" encoding="utf-8"?-->
<!-- Generator: Adobe Illustrator 19.1.1, SVG Export Plug-In . SVG Version: 6.00 Build 0)  -->
<svg version="1.1" id="_x31_0" xmlns="http://www.w3.org/2000/svg" xmlns:xlink="http://www.w3.org/1999/xlink" x="0px" y="0px" viewBox="0 0 512 512" style="width: 256px; height: 256px; opacity: 1;" xml:space="preserve">
<style type="text/css">
	.st0{fill:#374149;}
</style>
<g>
	<path class="st0" d="M458.871,0H53.203C23.894,0,0,23.817,0,53.199v405.598C0,488.18,23.894,512,53.203,512h405.668
		C488.18,512,512,488.18,512,458.797V53.199C512,23.817,488.18,0,458.871,0z M342.594,327.68V184.317h132.305V327.68H342.84H342.594
		z M342.594,342.594h132.305v116.203c0,8.902-7.199,16.102-16.027,16.102H342.594V342.594z M474.898,169.402H342.84h-0.246V37.098
		h116.278c8.828,0,16.027,7.199,16.027,16.102V169.402z M327.754,37.102v132.301H184.598h-0.278V37.098h143.157L327.754,37.102z
		 M241.774,290.82l16.558-42.617l6.051-15.418h-0.063l0.063-0.16h-18.402v10.906h-12.168v-22.41h44.374v11.504l-22.633,58.25
		h-10.289L241.774,290.82z M327.754,342.594v132.305H184.32V342.594H327.754z M37.102,327.68V184.317h132.375V327.68H37.348H37.102z
		 M37.102,342.594h132.375v132.305H53.203c-8.832,0-16.102-7.199-16.102-16.102V342.594z M169.477,37.102v132.301H37.348h-0.246
		V53.199c0-8.902,7.27-16.102,16.102-16.102h116.082L169.477,37.102z" style="fill: rgb(58, 171, 210);"></path>
	<polygon class="st0" points="84.258,402.293 84.258,402.5 92.883,395.008 98.461,390.297 98.461,446.191 111.191,446.191 
		111.191,376.45 98.461,376.45 84.258,388.793 84.258,397 84.152,402.383 	" style="fill: rgb(58, 171, 210);"></polygon>
	<path class="st0" d="M422.508,412.398c1.175-1.371,2.234-2.656,3.183-3.867c0.946-1.207,1.73-2.434,2.352-3.676
		c0.617-1.238,1.094-2.527,1.422-3.867c0.324-1.339,0.488-2.855,0.488-4.554c0-3.137-0.523-5.957-1.566-8.473
		c-1.046-2.515-2.5-4.637-4.359-6.367c-1.863-1.726-4.102-3.066-6.71-4.015c-2.614-0.946-5.454-1.422-8.52-1.422
		c-3.008,0-5.797,0.461-8.379,1.375c-2.578,0.914-4.828,2.254-6.758,4.016c-1.926,1.762-3.426,3.898-4.504,6.414
		c-1.011,2.359-1.504,5.047-1.566,8.004c-0.007,0.141-0.042,0.266-0.05,0.406h0.015c0,0.054-0.015,0.102-0.015,0.16h12.734
		c0-1.695,0.246-3.117,0.734-4.258c0.492-1.145,1.141-2.058,1.957-2.746c0.82-0.683,1.73-1.176,2.746-1.469
		c1.007-0.293,2.039-0.442,3.086-0.442c2.738,0,4.832,0.801,6.27,2.402c1.434,1.602,2.152,3.707,2.152,6.317
		c0,1.633-0.277,3.07-0.832,4.313c-0.554,1.238-1.484,2.609-2.793,4.109l-26.054,30.27v11.457h42.414v-11.457h-16.324l-10.523-0.106
		L422.508,412.398z" style="fill: rgb(58, 171, 210);"></path>
	<path class="st0" d="M235.797,121.914c1.242,2.586,2.89,4.702,4.95,6.367c2.054,1.664,4.406,2.89,7.05,3.671
		c2.645,0.786,5.402,1.18,8.278,1.18c3,0,5.843-0.43,8.519-1.278c2.68-0.847,5.027-2.137,7.055-3.867
		c2.023-1.73,3.625-3.898,4.801-6.511c1.171-2.614,1.762-5.649,1.762-9.11c0-4.246-0.883-7.625-2.645-10.137
		c-1.477-2.106-3.266-3.687-5.242-4.949c-0.367-0.262-0.691-0.574-1.07-0.821c2.258-1.238,4.153-2.969,5.676-5.203
		c1.531-2.254,2.301-5.27,2.301-9.062c0-2.938-0.523-5.629-1.566-8.078c-1.043-2.449-2.515-4.554-4.41-6.32
		c-1.89-1.758-4.144-3.133-6.758-4.11c-2.613-0.98-5.449-1.472-8.519-1.472c-2.942,0-5.699,0.461-8.278,1.374
		c-2.578,0.91-4.816,2.219-6.711,3.914c-1.89,1.699-3.41,3.774-4.554,6.222c-1.058,2.27-1.606,4.867-1.738,7.726
		c-0.015,0.164-0.058,0.321-0.074,0.485h0.02c0,0.058-0.016,0.106-0.02,0.16h12.734c0.133-2.676,0.996-4.75,2.598-6.214
		c1.598-1.473,3.606-2.207,6.024-2.207c2.285,0,4.277,0.754,5.973,2.254c1.699,1.504,2.546,3.719,2.546,6.66
		c0,2.481-0.683,4.551-2.054,6.219c-1.371,1.668-3.625,2.496-6.762,2.496h-1.86v10.875v0.035l0,0v0.16h1.86
		c3.137,0,5.55,0.867,7.25,2.594c1.699,1.73,2.547,4.066,2.547,7.008c0,3.129-0.883,5.531-2.645,7.195
		c-1.762,1.668-4.015,2.5-6.758,2.5c-1.242,0-2.434-0.18-3.574-0.539c-1.145-0.359-2.141-0.914-2.988-1.664
		c-0.852-0.754-1.539-1.699-2.055-2.84c-0.527-1.145-0.82-2.5-0.882-4.066h-12.387H234l0,0h-0.16
		C233.906,116.218,234.558,119.34,235.797,121.914z" style="fill: rgb(58, 171, 210);"></path>
	<polygon class="st0" points="114.914,255.898 102.672,255.898 102.672,268.926 92.442,268.926 88.11,268.859 104.543,235.988 
		111.973,221.289 111.894,221.289 111.973,221.129 98.066,221.129 74.168,268.926 74.168,280.977 102.672,280.977 102.672,290.867 
		114.914,290.867 114.914,280.977 121.102,280.977 121.121,280.977 121.121,280.977 121.282,280.977 121.282,268.926 
		114.914,268.926 	" style="fill: rgb(58, 171, 210);"></polygon>
	<path class="st0" d="M429.797,68.094c-1.961-1.828-4.262-3.214-6.902-4.164c-2.648-0.946-5.504-1.418-8.57-1.418
		c-3.07,0-5.93,0.488-8.57,1.469c-2.644,0.976-4.945,2.398-6.906,4.262c-1.962,1.855-3.493,4.148-4.606,6.851
		c-1.114,2.711-1.66,5.766-1.66,9.16c0,3.266,0.515,6.172,1.562,8.719c1.042,2.546,2.414,4.699,4.117,6.465
		c1.691,1.762,3.653,3.117,5.879,4.062c2.214,0.946,4.504,1.422,6.855,1.422c0.844,0,1.711-0.066,2.594-0.195
		c0.555-0.082,1.09-0.274,1.633-0.43c0.305-0.054,0.574-0.114,0.906-0.152l-9.898,19.672l-4.543,8.863h0.082l-0.082,0.16h13.809
		l14.793-30.172c1.566-3.199,2.922-6.301,4.062-9.305c1.145-3.004,1.715-6.106,1.715-9.305c0-3.461-0.554-6.527-1.66-9.207
		C433.289,72.176,431.758,69.922,429.797,68.094z M414.324,73.969c2.61,0,4.766,0.882,6.465,2.645
		c1.695,1.766,2.543,4.277,2.543,7.542c0,3.266-0.848,5.782-2.543,7.543c-1.699,1.762-3.855,2.645-6.465,2.645
		c-2.746,0-4.934-0.914-6.566-2.746c-1.629-1.824-2.445-4.305-2.445-7.442c0-3.266,0.847-5.777,2.542-7.542
		C409.554,74.851,411.711,73.969,414.324,73.969z" style="fill: rgb(58, 171, 210);"></path>
</g>
</svg>
